<?xml version="1.0" encoding="UTF-8" standalone="no"?>
<!-- Created with Inkscape (http://www.inkscape.org/) -->

<svg
   width="720"
   height="720"
   viewBox="0 0 720 720"
   version="1.1"
   id="svg1"
   xml:space="preserve"
   inkscape:export-filename="redboost-ditial-icon.svg"
   inkscape:export-xdpi="96"
   inkscape:export-ydpi="96"
   xmlns:inkscape="http://www.inkscape.org/namespaces/inkscape"
   xmlns:sodipodi="http://sodipodi.sourceforge.net/DTD/sodipodi-0.dtd"
   xmlns:xlink="http://www.w3.org/1999/xlink"
   xmlns="http://www.w3.org/2000/svg"
   xmlns:svg="http://www.w3.org/2000/svg"><sodipodi:namedview
     id="namedview1"
     pagecolor="#505050"
     bordercolor="#ffffff"
     borderopacity="1"
     inkscape:showpageshadow="0"
     inkscape:pageopacity="0"
     inkscape:pagecheckerboard="1"
     inkscape:deskcolor="#505050"
     inkscape:document-units="px"><inkscape:page
       x="0"
       y="0"
       width="720"
       height="720"
       id="page2"
       margin="0"
       bleed="0" /></sodipodi:namedview><defs
     id="defs1"><linearGradient
       inkscape:collect="always"
       xlink:href="#linearGradient18"
       id="linearGradient19"
       x1="96.204796"
       y1="213.71338"
       x2="50.3508"
       y2="100.22076"
       gradientUnits="userSpaceOnUse"
       gradientTransform="matrix(2.6140813,0,0,2.6140813,-31.564872,-49.747114)" /><linearGradient
       id="linearGradient18"
       inkscape:collect="always"><stop
         style="stop-color:#f53396;stop-opacity:1;"
         offset="0.17631225"
         id="stop18" /><stop
         style="stop-color:#d938ab;stop-opacity:1;"
         offset="0.46702558"
         id="stop2" /><stop
         style="stop-color:#bd3dc0;stop-opacity:1;"
         offset="0.64737552"
         id="stop3" /><stop
         style="stop-color:#a342d4;stop-opacity:1;"
         offset="0.82772553"
         id="stop4" /><stop
         style="stop-color:#8548eb;stop-opacity:1;"
         offset="0.92732167"
         id="stop5" /><stop
         style="stop-color:#6d4dff;stop-opacity:1;"
         offset="1"
         id="stop19" /></linearGradient></defs><g
     inkscape:label="Capa 1"
     inkscape:groupmode="layer"
     id="layer1"><g
       id="g1"
       transform="matrix(0.52580989,0,0,0.52580989,35,170.40445)"
       style="stroke-width:1.90183"><path
         id="path16"
         style="baseline-shift:baseline;display:inline;overflow:visible;vector-effect:none;fill:url(#linearGradient19);stroke-width:7.18801;enable-background:accumulate;stop-color:#000000"
         d="m 295.57924,169.43596 c -64.90047,0.0923 -129.80541,0.15364 -194.70271,0.27423 -6.87298,0.0826 -13.34549,3.46679 -16.97901,9.03458 -4.38023,6.45236 -4.60467,15.64377 -0.49577,22.97279 2.71195,5.0836 7.44506,8.68711 11.34186,12.85211 18.60906,18.60575 37.21776,37.21208 55.82445,55.82042 L 12.065331,408.89282 c -16.087108,16.08711 -16.087108,41.98922 0,58.07633 l 11.530974,11.53097 0.0095,0.0104 27.290155,27.29014 c 0.96319,0.96318 2.51393,0.96318 3.47713,0 l -0.42958,0.42958 c -0.72526,0.72524 -0.72527,1.89267 0,2.61797 l 42.87237,42.87237 H 219.20276 L 115.13625,447.65449 c -0.36264,-0.36265 -0.83574,-0.54439 -1.30899,-0.54439 -0.47325,0 -0.94635,0.18195 -1.30898,0.54439 L 220.17673,339.99604 c 20.6351,20.63467 41.26588,41.27417 61.90603,61.90335 5.16867,5.07552 12.52138,7.75549 19.36193,6.97314 7.92955,-0.81141 14.81123,-6.27918 17.18029,-13.78285 1.73625,-5.13599 0.92949,-10.8389 1.12933,-16.27926 0.0674,-61.98782 0.20312,-123.9704 0.2243,-185.96128 -0.28512,-9.2023 -8.17714,-16.85414 -15.64842,-21.69218 -1.91641,-1.24102 -4.2247,-1.58522 -6.50305,-1.68047 l 0.006,-0.004 c -0.75948,-0.0329 -1.51494,-0.0383 -2.25191,-0.0365 z"
         inkscape:export-filename="arow-redboost-ditial.svg"
         inkscape:export-xdpi="96"
         inkscape:export-ydpi="96" /><path
         id="rect6"
         style="fill:#6d4dff;fill-opacity:1;stroke-width:2.09352"
         d="m 176.88424,383.67083 c -0.23662,0 -0.4725,0.0902 -0.65382,0.27152 l -21.15183,21.15182 c -0.001,10e-4 -0.003,10e-4 -0.004,0.003 l -0.63761,0.63896 c -0.004,0.004 -0.009,0.008 -0.0136,0.012 l -37.0677,37.06905 -2.21948,2.21813 c -0.72526,0.72525 -0.72527,1.894 0,2.61931 l 104.06651,104.06516 h 85.11254 13.21821 c 4.80989,-11.52198 2.52518,-25.25804 -6.87861,-34.66183 l -56.3094,-56.30957 -55.00043,-55.00042 -21.80565,-21.80564 c -0.18131,-0.18132 -0.41854,-0.27153 -0.65516,-0.27153 z" /></g><text
       xml:space="preserve"
       style="font-style:normal;font-variant:normal;font-weight:500;font-stretch:normal;font-size:106.667px;font-family:Ubuntu;-inkscape-font-specification:'Ubuntu, Medium';font-variant-ligatures:normal;font-variant-caps:normal;font-variant-numeric:normal;font-variant-east-asian:normal;text-align:start;writing-mode:lr-tb;direction:ltr;text-anchor:start;fill:#f46a1f;fill-opacity:1"
       x="221.20113"
       y="348.13309"
       id="text1"><tspan
         sodipodi:role="line"
         id="tspan1"
         x="221.20113"
         y="348.13309"
         style="font-size:106.667px">Redboost</tspan></text><text
       xml:space="preserve"
       style="font-style:normal;font-variant:normal;font-weight:500;font-stretch:normal;font-size:106.667px;font-family:Ubuntu;-inkscape-font-specification:'Ubuntu, Medium';font-variant-ligatures:normal;font-variant-caps:normal;font-variant-numeric:normal;font-variant-east-asian:normal;text-align:start;writing-mode:lr-tb;direction:ltr;text-anchor:start;fill:#6d4dff;fill-opacity:1"
       x="221.20113"
       y="459.23798"
       id="text2"><tspan
         sodipodi:role="line"
         id="tspan2"
         x="221.20113"
         y="459.23798"
         style="font-size:106.667px">Digital</tspan></text></g></svg>
