<?xml version="1.0" encoding="UTF-8" standalone="no"?>
<!-- Created with Inkscape (http://www.inkscape.org/) -->

<svg
   width="122.40576mm"
   height="146.24066mm"
   viewBox="0 0 122.40576 146.24066"
   version="1.1"
   id="svg1"
   xmlns:inkscape="http://www.inkscape.org/namespaces/inkscape"
   xmlns:sodipodi="http://sodipodi.sourceforge.net/DTD/sodipodi-0.dtd"
   xmlns:xlink="http://www.w3.org/1999/xlink"
   xmlns="http://www.w3.org/2000/svg"
   xmlns:svg="http://www.w3.org/2000/svg">
  <sodipodi:namedview
     id="namedview1"
     pagecolor="#505050"
     bordercolor="#ffffff"
     borderopacity="1"
     inkscape:showpageshadow="0"
     inkscape:pageopacity="0"
     inkscape:pagecheckerboard="1"
     inkscape:deskcolor="#505050"
     inkscape:document-units="mm"
     inkscape:zoom="0.76435185"
     inkscape:cx="397.06844"
     inkscape:cy="561.25984"
     inkscape:window-width="1920"
     inkscape:window-height="1051"
     inkscape:window-x="-9"
     inkscape:window-y="-9"
     inkscape:window-maximized="1"
     inkscape:current-layer="layer1">
    <inkscape:page
       x="0"
       y="-1.3034537e-26"
       width="122.40576"
       height="146.24068"
       id="page2"
       margin="0"
       bleed="0" />
  </sodipodi:namedview>
  <defs
     id="defs1">
    <linearGradient
       id="linearGradient18"
       inkscape:collect="always">
      <stop
         style="stop-color:#f53396;stop-opacity:1;"
         offset="0.10869566"
         id="stop18" />
      <stop
         style="stop-color:#6d4dff;stop-opacity:1;"
         offset="1"
         id="stop19" />
    </linearGradient>
    <linearGradient
       inkscape:collect="always"
       xlink:href="#linearGradient18"
       id="linearGradient19"
       x1="15.409369"
       y1="137.0414"
       x2="131.1463"
       y2="176.89282"
       gradientUnits="userSpaceOnUse"
       gradientTransform="translate(-12.074939,-83.846958)" />
  </defs>
  <g
     inkscape:label="Capa 1"
     inkscape:groupmode="layer"
     id="layer1">
    <path
       id="path16"
       style="baseline-shift:baseline;display:inline;overflow:visible;vector-effect:none;fill:url(#linearGradient19);stroke-width:0.999998;enable-background:accumulate;stop-color:#000000;stop-opacity:1"
       d="M 113.07194,1.2036989e-4 C 88.244681,0.03542037 63.415713,0.05889537 38.589669,0.10502437 c -2.629215,0.0316 -5.105234,1.32619803 -6.495211,3.45611903 -1.67563,2.468309 -1.761487,5.984424 -0.189653,8.7880936 1.037439,1.9447 2.848059,3.323201 4.338754,4.916495 7.118777,7.11751 14.237415,14.23524 21.355285,21.35374 L 4.615515,91.602802 c -6.15402,6.15402 -6.15402,16.062708 0,22.216728 l 4.4111,4.4111 0.00362,0.004 10.439673,10.43967 c 0.368462,0.36846 0.961689,0.36846 1.330151,0 l -0.164331,0.16433 c -0.277444,0.27744 -0.277449,0.72403 0,1.00149 l 16.400549,16.40055 H 83.854606 L 44.044633,106.43083 c -0.138725,-0.13873 -0.319705,-0.20825 -0.500745,-0.20825 -0.18104,0 -0.362021,0.0696 -0.500744,0.20825 L 84.227193,65.246782 c 7.893828,7.89366 15.785997,15.78917 23.681757,23.68073 1.97724,1.94161 4.78997,2.96681 7.40678,2.66753 3.0334,-0.3104 5.66594,-2.40206 6.57221,-5.27254 0.66419,-1.96474 0.35557,-4.14635 0.43202,-6.22753 0.0258,-23.71304 0.0777,-47.42408 0.0858,-71.1382916 -0.10907,-3.520282 -3.12811,-6.447442 -5.9862,-8.29820203 -0.73311,-0.474745 -1.61613,-0.606418 -2.4877,-0.642855 l 0.002,-0.00155 c -0.29053,-0.01259 -0.57953,-0.0146530001 -0.86145,-0.0139530001 z" />
    <path
       id="rect6"
       style="fill:#6d4dff;fill-opacity:1;stroke-width:0.29125"
       d="m 67.66593,81.954292 c -0.09052,0 -0.180752,0.03451 -0.250114,0.10387 l -8.091496,8.09149 c -4.59e-4,4.6e-4 -0.0011,5.8e-4 -0.0016,10e-4 l -0.243913,0.24443 c -0.0017,0.0016 -0.0035,0.003 -0.0052,0.0046 l -14.180013,14.180528 -0.849044,0.84853 c -0.277446,0.27744 -0.27745,0.72454 0,1.002 l 39.809973,39.80946 h 32.559257 5.05654 c 1.83999,-4.40766 0.96599,-9.6623 -2.63137,-13.25966 l -21.540802,-21.5408 -21.04006,-21.040058 -8.34161,-8.34161 c -0.06936,-0.06936 -0.16011,-0.10387 -0.250631,-0.10387 z" />
  </g>
</svg>
